PathFileType	4	(X/Y/Z)	Walk3.trc
DataRate	CameraRate	NumFrames	NumMarkers	Units	OrigDataRate	OrigDataStartFrame	OrigNumFrames
200.000000	200.000000	5	61	mm	200.000000	203	395
Frame#	Times		LFHD		RFHD		CLAV		STRN		LASI		RASI		RACR1		RUA1		RFA1		RWRU		RCAR		LACR1		LUA1		LFA1		LWRU		LCAR		RTH3		RMFC		RTB1		RTB3		RTB4		RMT5		LTH1		LTH3		LTH2		LTH4		LLFC		LTB1		LTB2		LTB4		RTH2		RMT1		RTH4		RMMAL		RLFC		RTH1		RTB2		LBHD		RWRR		LElbow		LWRR		RLMAL		RToe		RCAL		RElbow		LPSI		RBHD		T10		RBack		RPSI		LTB3		LMFC		LLMAL		RElbowM		LElbowM		LCAL		LMT5		LToe		C7		LMT1		LMMAL
			X1	Y1	Z1	X2	Y2	Z2	X3	Y3	Z3	X4	Y4	Z4	X5	Y5	Z5	X6	Y6	Z6	X7	Y7	Z7	X8	Y8	Z8	X9	Y9	Z9	X10	Y10	Z10	X11	Y11	Z11	X12	Y12	Z12	X13	Y13	Z13	X14	Y14	Z14	X15	Y15	Z15	X16	Y16	Z16	X17	Y17	Z17	X18	Y18	Z18	X19	Y19	Z19	X20	Y20	Z20	X21	Y21	Z21	X22	Y22	Z22	X23	Y23	Z23	X24	Y24	Z24	X25	Y25	Z25	X26	Y26	Z26	X27	Y27	Z27	X28	Y28	Z28	X29	Y29	Z29	X30	Y30	Z30	X31	Y31	Z31	X32	Y32	Z32	X33	Y33	Z33	X34	Y34	Z34	X35	Y35	Z35	X36	Y36	Z36	X37	Y37	Z37	X38	Y38	Z38	X39	Y39	Z39	X40	Y40	Z40	X41	Y41	Z41	X42	Y42	Z42	X43	Y43	Z43	X44	Y44	Z44	X45	Y45	Z45	X46	Y46	Z46	X47	Y47	Z47	X48	Y48	Z48	X49	Y49	Z49	X50	Y50	Z50	X51	Y51	Z51	X52	Y52	Z52	X53	Y53	Z53	X54	Y54	Z54	X55	Y55	Z55	X56	Y56	Z56	X57	Y57	Z57	X58	Y58	Z58	X59	Y59	Z59	X60	Y60	Z60	X61	Y61	Z61

203	1.015	-100.59	1586.5	-58.695	-112.33	1587.2	40.383	-163.04	1310.3	-12.986	-147.83	1176	-1.9886	-196.21	907.4	-112.17	-196.92	919.9	136.7	-238.79	1356.8	147.4	-267.21	1193	211.32	-268.76	909.76	296.44	-219.15	791.12	283.68	-241.96	727.72	333.84	-221.87	1364.2	-165.25	-210.42	1200.9	-245.82	-73.206	965.3	-314.44	41.515	922.8	-287.01	75.472	860.93	-321.03	-138.48	603.24	173.18	-92.041	465.1	24.059	-51.632	364.31	118.71	-69.382	194.35	103.52	-60.442	278.53	112.52	-22.218	48.099	129.61	-279.96	747.39	-179.09	-330.15	585.78	-148.88	-252.57	655.41	-141.55	-306.35	666	-165.63	-377.85	449.95	-129.53	-365.19	346.38	-62.464	-406.67	264.6	-116.46	-394.47	265.41	-56.395	-127.66	707.75	181.17	13.019	67.621	53.334	-176.49	676.42	193.24	-109.61	105.64	38.365	-77.599	471.62	147.97	-215.74	751.46	214.97	-105.44	280.88	153.72	-241.88	1526.3	-97.282	-282.51	789.2	311.04	-189.55	1051.7	-295.67	-3.8782	872.52	-302.81	-125.96	84.753	118.62	57.013	75.904	89.724	-173.08	54.494	70.752	-296.72	1032.6	254.3	-367.38	971.33	-38.981	-255.76	1533.2	45.274	-349.73	1209.6	-11.776	-351.54	1296.9	50.644	-366.15	962.89	60.984	-418.11	184.27	-49.162	-408.79	448.64	1.0881	-494.56	85.265	-89.046	-315.14	1021.2	178.73	-204.82	1017	-230.75	-554.13	65.606	-48.856	-395.57	24.061	-96.016	-306.94	24.565	-41.427	-266.44	1417.8	-21.333	-365.19	30.456	-14.356	-479.59	103.69	-10.129
204	1.02	-92.431	1585.5	-58.494	-104.21	1586.2	40.584	-154.58	1309	-12.799	-139.49	1174.4	-1.9799	-188.67	906.19	-112.52	-187.87	918.41	136.67	-230.1	1355.6	147.65	-259.8	1192.1	211.71	-263.03	909.03	297.49	-214.13	790.09	285.28	-237.7	726.75	335.22	-213.35	1363.2	-164.79	-200.61	1200.3	-245.63	-61.09	966.62	-313.6	53.96	925.83	-285.12	89.24	864.59	-318.89	-130.24	601.73	173.3	-84.364	463.64	24.352	-38.766	365.12	118.84	-49.854	194.52	104.08	-44.221	279.04	112.84	3.0913	49.755	130.12	-274.11	746.95	-179.25	-325.57	585.75	-149.05	-247.36	654.68	-142.17	-301.13	665.73	-165.89	-374.43	450.26	-129.61	-362.42	346.42	-62.674	-404.73	265.03	-116.65	-392.42	265.7	-56.619	-119.26	706.16	181.5	37.178	70.352	53.583	-168.11	674.92	193.55	-86.955	104.24	39.269	-68.223	471.02	148.06	-207.19	749.93	215.47	-88.933	279.63	154.45	-233.54	1524.9	-97.108	-277.71	788.53	312.21	-178.73	1051.3	-295.86	9.5214	874.91	-301.55	-102.05	82.712	119.69	81.004	80.207	89.56	-148.42	50.732	72.073	-289.99	1031.9	254.84	-359.49	970.05	-37.707	-247.5	1531.8	45.429	-341.48	1208.6	-11.419	-343.03	1295.8	50.979	-357.6	961.58	62.15	-416.62	184.72	-49.447	-404.7	449.09	1.1357	-494.03	86.351	-89.133	-308.14	1020.3	179.35	-194.32	1016.1	-231.15	-553.72	67.216	-48.879	-395.56	24.078	-95.971	-306.86	24.492	-41.399	-257.86	1416.6	-21.019	-365.12	30.404	-14.359	-478.81	104.67	-10.223
205	1.025	-84.271	1584.4	-58.297	-96.064	1585.2	40.782	-146.08	1307.6	-12.598	-131.1	1172.8	-1.9625	-181.09	904.98	-112.89	-178.75	916.9	136.61	-221.34	1354.3	147.92	-252.28	1191.2	212.12	-257.17	908.28	298.54	-209.02	789.04	286.81	-233.29	725.76	336.55	-204.82	1362.3	-164.3	-190.79	1199.6	-245.38	-49.166	967.86	-312.75	66.158	928.7	-283.26	102.69	868.07	-316.79	-122.15	600.07	173.57	-76.862	461.94	24.666	-26.148	365.9	119	-30.706	194.89	104.65	-28.311	279.65	113.19	27.868	51.705	130.55	-268.16	746.5	-179.39	-320.85	585.69	-149.19	-242.03	653.95	-142.78	-295.79	665.45	-166.11	-370.85	450.55	-129.65	-359.51	346.43	-62.848	-402.69	265.45	-116.81	-390.26	265.98	-56.815	-110.9	704.41	181.8	60.785	73.326	53.761	-159.8	673.33	193.92	-64.699	103.19	40.129	-59	470.32	148.19	-198.61	748.38	215.97	-72.714	278.54	155.18	-225.2	1523.4	-96.914	-272.77	787.85	313.38	-167.99	1051	-295.99	22.647	877.18	-300.28	-78.549	81.081	120.71	104.41	84.703	89.311	-124.13	47.436	73.325	-283.15	1031.2	255.41	-351.56	968.71	-36.381	-239.22	1530.4	45.603	-333.2	1207.5	-11.026	-334.48	1294.6	51.369	-348.98	960.23	63.364	-415.06	185.17	-49.716	-400.43	449.51	1.2275	-493.47	87.48	-89.218	-301.06	1019.4	179.99	-183.91	1015.3	-231.49	-553.27	68.89	-48.897	-395.54	24.105	-95.917	-306.78	24.421	-41.368	-249.28	1415.4	-20.675	-365.05	30.344	-14.35	-477.99	105.67	-10.31
206	1.03	-76.105	1583.4	-58.103	-87.9	1584.1	40.979	-137.56	1306.3	-12.381	-122.69	1171.2	-1.9366	-173.45	903.75	-113.29	-169.56	915.38	136.52	-212.53	1353	148.22	-244.65	1190.3	212.56	-251.16	907.51	299.59	-203.81	787.96	288.29	-228.73	724.76	337.84	-196.3	1361.3	-163.77	-180.97	1199	-245.08	-37.441	969	-311.89	78.11	931.39	-281.44	115.81	871.36	-314.75	-114.18	598.28	174	-69.499	460.04	24.995	-13.786	366.66	119.21	-12	195.45	105.22	-12.75	280.34	113.56	52.012	53.894	130.91	-262.11	746.03	-179.49	-315.99	585.62	-149.3	-236.58	653.21	-143.36	-290.32	665.15	-166.31	-367.08	450.83	-129.64	-356.46	346.41	-62.987	-400.54	265.89	-116.93	-387.99	266.25	-56.982	-102.58	702.54	182.06	83.767	76.49	53.879	-151.53	671.67	194.38	-42.919	102.48	40.934	-49.912	469.51	148.36	-189.97	746.83	216.46	-56.831	277.58	155.88	-216.86	1522	-96.699	-267.69	787.16	314.56	-157.34	1050.6	-296.07	35.493	879.31	-299	-55.559	79.833	121.66	127.17	89.325	88.994	-100.33	44.591	74.486	-276.19	1030.4	256.01	-343.57	967.31	-35.014	-230.92	1528.9	45.8	-324.89	1206.4	-10.599	-325.9	1293.5	51.81	-340.3	958.86	64.618	-413.42	185.62	-49.964	-395.98	449.89	1.3644	-492.86	88.658	-89.302	-293.9	1018.5	180.66	-173.59	1014.5	-231.77	-552.79	70.634	-48.912	-395.51	24.14	-95.854	-306.7	24.355	-41.335	-240.67	1414.2	-20.3	-364.97	30.274	-14.328	-477.11	106.7	-10.389
207	1.035	-67.931	1582.3	-57.906	-79.714	1583	41.178	-129.02	1304.9	-12.147	-114.23	1169.6	-1.9022	-165.74	902.53	-113.71	-160.31	913.88	136.4	-203.66	1351.7	148.54	-236.9	1189.3	213.03	-245.02	906.73	300.62	-198.48	786.86	289.71	-224.01	723.74	339.1	-187.78	1360.3	-163.22	-171.16	1198.3	-244.73	-25.922	970.03	-311.02	89.816	933.88	-279.67	128.62	874.45	-312.75	-106.3	596.38	174.63	-62.239	457.96	25.335	-1.6878	367.37	119.46	6.2036	196.16	105.78	2.428	281.08	113.95	75.426	56.259	131.21	-255.93	745.54	-179.55	-310.96	585.54	-149.36	-230.97	652.46	-143.89	-284.7	664.82	-166.46	-363.13	451.09	-129.59	-353.26	346.35	-63.09	-398.27	266.33	-117.03	-385.58	266.5	-57.12	-94.272	700.56	182.29	106.05	79.782	53.95	-143.27	669.96	194.93	-21.696	102.06	41.673	-40.94	468.61	148.55	-181.27	745.3	216.94	-41.329	276.75	156.55	-208.51	1520.5	-96.459	-262.44	786.46	315.73	-146.78	1050.3	-296.1	48.058	881.29	-297.72	-33.182	78.935	122.52	149.2	93.999	88.633	-77.125	42.172	75.534	-269.1	1029.7	256.64	-335.51	965.87	-33.619	-222.59	1527.4	46.025	-316.54	1205.3	-10.138	-317.3	1292.3	52.303	-331.55	957.48	65.901	-411.7	186.08	-50.193	-391.34	450.24	1.5461	-492.2	89.891	-89.384	-286.66	1017.6	181.34	-163.37	1013.7	-231.98	-552.26	72.457	-48.925	-395.48	24.184	-95.781	-306.62	24.293	-41.301	-232.06	1412.9	-19.892	-364.89	30.194	-14.293	-476.18	107.77	-10.461
